# xmcd
#
# Track frame offsets: 
#        150
#        20802
#        35477
#        47710
#        63970
#        73327
#        85112
#        100815
#        113205
#        123220
#        139925
#        156647
#        174630
#        192017
#        209715
#        227520
#        246237
#        264540
#        281130
#        296605
#        315327
#        330905
#
# Disc length: 4765 seconds
#
# Revision: 15
# Processed by: cddbd v1.5.2PL0 Copyright (c) Steve Scherf et al.
# Submitted via: ExactAudioCopy v1.1
#
DISCID=4b129b16
DTITLE=Various Artist - The Best Air Guitar Album In The World... Eve
DTITLE=r! - CD2
DYEAR=2002
DGENRE=Rock
TTITLE0=The Jimi Hendrix Experience - Voodoo Chile
TTITLE1=The Who - My Generation
TTITLE2=Derek And The Dominos - Layla
TTITLE3=T-Rex - 20th Century Boy
TTITLE4=Paul McCartney - All Shook Up
TTITLE5=Chuck Berry - Johnny B. Goode
TTITLE6=Placebo - Nancy Boy
TTITLE7=Motorhead - Ace Of Spades
TTITLE8=Dick Dale And His Del-Tones - Misirlou
TTITLE9=Free - Alright Now
TTITLE10=Robbie Williams - Let Me Entertain You
TTITLE11=The Knack - My Sharona
TTITLE12=Iron Maiden - Run To The Hills
TTITLE13=Ram Jam - Black Betty
TTITLE14=ZZ Top - Gimme All Your Lovin'
TTITLE15=Gary Moore - Still Got The Blues
TTITLE16=Cream - Crossroads
TTITLE17=Status Quo - Down Down
TTITLE18=Bad Company - Can't Get Enough Of Your Love
TTITLE19=Whitesnake - Fool For You Loving
TTITLE20=Steppenwolf - Born To Be Wild
TTITLE21=Queen - Bohemian Rhapsody
EXTD=
EXTT0=
EXTT1=
EXTT2=
EXTT3=
EXTT4=
EXTT5=
EXTT6=
EXTT7=
EXTT8=
EXTT9=
EXTT10=
EXTT11=
EXTT12=
EXTT13=
EXTT14=
EXTT15=
EXTT16=
EXTT17=
EXTT18=
EXTT19=
EXTT20=
EXTT21=
PLAYORDER=
